# xmcd
#
# Track frame offsets:
#	150
#	19933
#	60695
#	104988
#	175291
#	209939
#
# Disc length: 3179 seconds
#
# Revision: 1
# Processed by: cddbd v1.5.2PL0 Copyright (c) Steve Scherf et al.
# Submitted via: audiograbber 1.83.01
#
DISCID=600c6906
DTITLE=Grateful Dead - 80-08-29 The Spectrum, Philadelphia PA
DYEAR=1900
DGENRE=
TTITLE0=Greatest Story Ever Told
TTITLE1=Althea
TTITLE2=Let It Grow
TTITLE3=He's Gone
TTITLE4=The Other One
TTITLE5=Drums
EXTD=
EXTT0=
EXTT1=
EXTT2=
EXTT3=
EXTT4=
EXTT5=
PLAYORDER=
